<?xml version="1.0" ?><!-- Uploaded to: SVG Repo, www.svgrepo.com, Generator: SVG Repo Mixer Tools -->
<svg width="800px" height="800px" viewBox="0 0 512 512" data-name="Слой 1" id="Слой_1" xmlns="http://www.w3.org/2000/svg"><defs><style>.cls-1{fill:#cdccd2;}.cls-2{fill:#ffffff;}.cls-3{fill:#00c232;}</style></defs><title/><circle class="cls-1" cx="253" cy="252.35" r="207.77"/><circle class="cls-2" cx="253.87" cy="252.35" r="194.41"/><path class="cls-3" d="M254.23,154.35A101.11,101.11,0,0,0,166.51,305.7l-14.15,51.64,52.38-13.75A101.09,101.09,0,1,0,254.23,154.35Zm-0.38,182.44c-1.07,0-2.14,0-3.19-.07-1.86,0-3.71-.19-5.54-0.38-0.48,0-1-.1-1.45-0.17-0.83-.1-1.64-0.21-2.45-0.33-1-.17-2-0.33-3-0.52s-1.78-.36-2.66-0.55-1.64-.38-2.45-0.59q-0.79-.18-1.57-0.43-1.21-.32-2.43-0.71c-0.9-.26-1.81-0.57-2.69-0.88s-1.71-.62-2.57-1-1.55-.59-2.31-0.93c-0.52-.21-1-0.43-1.55-0.67-2-.88-3.95-1.86-5.85-2.9-0.55-.29-1.07-0.59-1.59-0.9s-1.17-.67-1.74-1-1-.64-1.57-1-1-.67-1.55-1L176.62,331l8.44-30.78a83.88,83.88,0,0,1-4.61-7.73c-0.48-.86-0.9-1.76-1.33-2.64a82.31,82.31,0,0,1-4-9.82c-0.31-.86-0.57-1.74-0.83-2.64a65.79,65.79,0,0,1-1.69-8.13c-0.13-.8-0.23-1.45-0.29-1.85L172,265.5c-0.06-.49-0.17-1.23-0.29-2.14-0.28-2-.38-2.24-0.44-3.12-0.07-1-.21-2.12-0.23-3.19s-0.1-2.12-.1-3.19A82.91,82.91,0,1,1,253.85,336.78Z"/><path class="cls-3" d="M281.07,266.44l14.42,6.84a6.18,6.18,0,0,1,3.52,6.06c-0.4,5.13-3.18,13.21-16.09,16.19,0,0-7.5,2.72-25.76-5.28l-0.44-.21c-2.28-1.2-21.21-11.38-30.42-24.17,0,0-13.61-15.34-15.19-27.37,0,0-2.31-14.81,9.28-23.3a6.21,6.21,0,0,1,3.67-1.19h2.82a6.18,6.18,0,0,1,5.64,3.65L239.83,234a6.08,6.08,0,0,1-.19,5.45,34.44,34.44,0,0,1-3.63,5.07,6.16,6.16,0,0,0-.84,6.68c2.83,5.67,10,16.31,26.49,23.51a6.15,6.15,0,0,0,6.83-1.36L274,267.7A6.18,6.18,0,0,1,281.07,266.44Z"/></svg>